# xmcd CD database file
#
# Track frame offsets:
#	150
#	23345
#	44935
#
# Disc length: 946 seconds
#
# Revision: 0
# Processed by: cddbd v1.5.1PL0 Copyright (c) Steve Scherf et al.
# Submitted via: CDex 1.51
#
DISCID=1e03b003
DTITLE=Navel - Not Found-Special Maxi Single- Soul link OP
DYEAR=1900
DGENRE=Game
TTITLE0=Not Found-full Version-
TTITLE1=Not Found-Denki Oldtype mix-
TTITLE2=Not Found-404mix-
EXTD=
EXTT0=
EXTT1=
EXTT2=
PLAYORDER=
